<svg xmlns="http://www.w3.org/2000/svg" version="1.1" xmlns:xlink="http://www.w3.org/1999/xlink" xmlns:svgjs="http://svgjs.com/svgjs" width="1440" height="768" preserveAspectRatio="none" viewBox="0 0 1440 768">
    <g mask="url(&quot;#SvgjsMask1008&quot;)" fill="none">
        <path d="M42.02908326643828 205.18686097245035L139.07622345076447 37.096283443938205-29.014354077747683-59.95085674038796-126.06149426207386 108.13972078812417z" fill="rgba(28, 83, 142, 0.4)" class="triangle-float3"></path>
        <path d="M961.5232332808783 611.3001871198408L995.4740705421978 484.59393750109376 868.7678209234508 450.6431002397743 834.8169836621313 577.3493498585214z" fill="rgba(28, 83, 142, 0.4)" class="triangle-float1"></path>
        <path d="M942.0808203899132 247.653090565517L953.0298197681482 38.7337368355648 733.161466659961 236.7040911872821z" fill="rgba(28, 83, 142, 0.4)" class="triangle-float3"></path>
        <path d="M1401.511788879203 470.92533308646756L1251.9977718768687 384.6033751225475 1165.6758139129486 534.1173921248819 1315.189830915283 620.439350088802z" fill="rgba(28, 83, 142, 0.4)" class="triangle-float2"></path>
        <path d="M22.14 428.1 a199.91 199.91 0 1 0 399.82 0 a199.91 199.91 0 1 0 -399.82 0z" fill="rgba(28, 83, 142, 0.4)" class="triangle-float1"></path>
        <path d="M1283.602,576.295C1360.849,576.251,1417.474,509.508,1451.636,440.226C1481.643,379.37,1477.961,309.346,1444.271,250.449C1410.322,191.098,1351.946,148.521,1283.602,146.462C1211.643,144.294,1141.023,177.764,1105.242,240.235C1069.652,302.372,1081.664,377.166,1115.234,440.418C1151.471,508.695,1206.305,576.339,1283.602,576.295" fill="rgba(28, 83, 142, 0.4)" class="triangle-float2"></path>
        <path d="M414.72703433901074 350.54685313293567L319.49942453999086 214.27149966822498 255.79130010899394 344.89251192890976z" fill="rgba(28, 83, 142, 0.4)" class="triangle-float2"></path>
        <path d="M642.223,442.691C666.612,442.752,683.732,421.709,695.987,400.622C708.323,379.395,718.132,354.101,706.168,332.662C693.988,310.836,667.188,303.064,642.223,304.279C619.428,305.389,599.293,318.447,588.222,338.404C577.484,357.759,578.745,380.699,588.923,400.354C600.105,421.949,617.905,442.63,642.223,442.691" fill="rgba(28, 83, 142, 0.4)" class="triangle-float3"></path>
        <path d="M884.17,628.082C911.697,627.125,929.72,602.812,943.68,579.068C957.91,554.864,971.587,526.641,958.376,501.866C944.627,476.081,913.392,467.395,884.17,467.462C855.087,467.529,825.119,477.034,810.552,502.206C795.964,527.414,802.331,558.328,817.035,583.469C831.574,608.328,855.389,629.082,884.17,628.082" fill="rgba(28, 83, 142, 0.4)" class="triangle-float2"></path>
        <path d="M511.97 491.51 a250.21 250.21 0 1 0 500.42 0 a250.21 250.21 0 1 0 -500.42 0z" fill="rgba(28, 83, 142, 0.4)" class="triangle-float1"></path>
        <path d="M359.1152080813748 254.18765270360672L560.4065874533978 257.7012068000358 563.9201415498269 56.409827428012704 362.6287621778039 52.89627333158364z" fill="rgba(28, 83, 142, 0.4)" class="triangle-float3"></path>
        <path d="M316.61 703.24 a130.43 130.43 0 1 0 260.86 0 a130.43 130.43 0 1 0 -260.86 0z" fill="rgba(28, 83, 142, 0.4)" class="triangle-float3"></path>
    </g>
    <defs>
        <mask id="SvgjsMask1008">
            <rect width="1440" height="768" fill="#ffffff"></rect>
        </mask>
        <style>
            @keyframes float1 {
                0%{transform: translate(0, 0)}
                50%{transform: translate(-10px, 0)}
                100%{transform: translate(0, 0)}
            }

            .triangle-float1 {
                animation: float1 5s infinite;
            }

            @keyframes float2 {
                0%{transform: translate(0, 0)}
                50%{transform: translate(-5px, -5px)}
                100%{transform: translate(0, 0)}
            }

            .triangle-float2 {
                animation: float2 4s infinite;
            }

            @keyframes float3 {
                0%{transform: translate(0, 0)}
                50%{transform: translate(0, -10px)}
                100%{transform: translate(0, 0)}
            }

            .triangle-float3 {
                animation: float3 6s infinite;
            }
        </style>
    </defs>
</svg>